<?xml version="1.0" encoding="utf-8"?>
<!-- Generator: Adobe Illustrator 22.1.0, SVG Export Plug-In . SVG Version: 6.00 Build 0)  -->
<svg version="1.1" id="Layer_1" xmlns="http://www.w3.org/2000/svg" xmlns:xlink="http://www.w3.org/1999/xlink" x="0px" y="0px"
	 viewBox="0 0 22.5 20" style="enable-background:new 0 0 22.5 20;" xml:space="preserve">
<path d="M15.8,1.1c0.1,0,0.2,0,0.4,0.1c0.1,0,0.2,0.1,0.3,0.2c0.1,0,0.1,0,0.1,0.1c0.1,0.1,0.1,0.2,0.2,0.3l0,0.1c0,0,0,0,0,0.1
	c0.1,0.2,0.2,0.5,0.4,0.7c0,0.2,0.1,0.3,0.1,0.5c0.1,0.4,0.1,0.9,0.1,1.3c0,0.2,0,0.4-0.1,0.7C17.3,5.6,17,6,16.7,6.3l0.9-0.6
	c0.4-0.2,0.8-0.3,1.2-0.3c0.2,0,0.4,0,0.5,0.1L21,6c0.5,0.2,0.6,0.7,0.2,1l-0.9,1c-0.5,0.4-1,0.7-1.6,0.7h0l-1-0.1
	c-0.5,0-1.1-0.1-1.2-0.3l0-0.1c0,0.1,0.1,0.3,0.2,0.4c0.2,0.4,0.2,1.1,0.1,1.6l-0.7,2.3c-0.1,0.6-0.2,1.3,0,1.9l0.2,0.8
	c0.1,0.6,0,1.2-0.4,1.7l-1,1c-0.5,0.5-1.1,0.8-1.7,0.9L12,19c-0.1,0-0.1,0-0.2,0c-0.6,0-1.2-0.1-1.7-0.5L9,17.8
	c-0.5-0.4-0.8-1-0.8-1.5l0.1-0.8c0-0.7-0.1-1.3-0.4-1.9l-1.2-2.1C6.4,11,6.2,10.3,6.4,9.9c0.1-0.1,0.1-0.3,0.2-0.4
	c0,0,0,0.1-0.1,0.1C6.4,9.6,5.9,9.9,5.4,10l-1,0.2c-0.2,0.1-0.3,0.1-0.5,0.1c-0.5,0-1-0.1-1.4-0.4L1.4,9.2C1,8.9,1,8.4,1.5,8.1
	L3,7.2C3.3,7.1,3.7,7,4,7C4.3,7,4.5,7,4.8,7.1l0.9,0.4c-0.3-0.2-0.7-0.6-0.8-1C4.8,6.3,4.7,6.1,4.6,5.9C4.5,5.4,4.4,5,4.4,4.5
	c0-0.2,0-0.3,0.1-0.4c0-0.3,0.1-0.6,0.2-0.8c0,0,0.1,0,0.1-0.1s0,0,0.1,0c0-0.1,0-0.3,0.1-0.4c0,0,0-0.1,0.1-0.1
	c0.1-0.1,0.2-0.2,0.2-0.2c0.1-0.1,0.2-0.2,0.3-0.2l0,0c0.1,0,0.1,0.2,0.1,0.2c0,0.2,0.1,0.5,0.1,0.8c0,0.2,0.1,0.2,0.1,0.4
	c0.1,0.1,0.1,0.2,0.1,0.2C5.9,4,6,4.2,6.1,4.3c0.1,0.1,0.2,0.2,0.2,0.3C6.7,5,7.2,5.3,7.7,5.5c0.2,0,0.2,0.1,0.4,0.1
	C8.4,5.3,8.7,5,9.2,5l3.8-0.4H13c0.4,0,0.8,0.2,1.1,0.3c0.1-0.1,0.2-0.2,0.4-0.2c0.4-0.2,0.9-0.6,1.1-1.1c0.1-0.1,0.1-0.2,0.1-0.3
	c0.1-0.2,0.1-0.3,0.1-0.5c0,0,0-0.2,0.1-0.2c0-0.2,0-0.2,0-0.4c0-0.3-0.1-0.5-0.1-0.8C15.7,1.3,15.7,1.2,15.8,1.1L15.8,1.1 M15.8,0
	L15.8,0c-0.2,0-0.4,0.1-0.6,0.2c-0.4,0.3-0.6,0.9-0.5,1.4v0c0.1,0.1,0.1,0.4,0.1,0.5v0c0,0.1,0,0.2,0,0.2c0,0,0,0.2,0,0.2v0.1
	c0,0.1-0.1,0.2-0.1,0.2c-0.1,0-0.1,0.1-0.1,0.2c-0.1,0.2-0.2,0.4-0.4,0.5c-0.4-0.2-0.7-0.2-1.1-0.2c-0.1,0-0.1,0-0.2,0L9,3.8
	C8.6,3.8,8.2,4,7.8,4.3C7.6,4.2,7.4,4,7.2,3.9c-0.1,0-0.1-0.2-0.2-0.3S7,3.5,6.9,3.4l-0.1,0c0,0-0.1-0.1-0.1-0.2
	c0,0-0.1-0.2-0.1-0.2v0C6.7,2.8,6.7,2.6,6.7,2.4V2.4c0.1-0.5-0.2-1-0.7-1.2C5.9,1.1,5.7,1,5.6,1C5.2,1,4.8,1.2,4.5,1.5
	C4.4,1.7,4.3,1.8,4.1,2C4.1,2.1,4,2.1,4,2.2C3.9,2.4,3.8,2.5,3.7,2.7l0,0l0,0c0,0,0,0.1-0.1,0.2c-0.1,0.3-0.2,0.6-0.2,1
	c0,0.2,0,0.4,0,0.6c0,0.4,0,0.9,0.2,1.4C3.1,5.9,2.7,6,2.4,6.2L0.9,7C0.1,7.4-0.2,8.4,0.2,9.3c0.2,0.3,0.4,0.5,0.6,0.6l1.1,0.8
	c0.6,0.4,1.3,0.6,2,0.6c0.3,0,0.5,0,0.7-0.1L5.3,11c0.1,0.3,0.2,0.6,0.3,0.9L6.8,14c0.2,0.4,0.3,0.9,0.3,1.3L7.1,16
	c-0.1,1,0.4,2,1.2,2.5l1.2,0.8c0.7,0.4,1.4,0.6,2.3,0.6c0.1,0,0.2,0,0.3,0l1.1-0.1c0.9-0.1,1.8-0.5,2.4-1.1l1-1
	c0.7-0.8,1-1.8,0.7-2.8L17,14.2c-0.1-0.4-0.1-0.9,0-1.3l0.7-2.3c0.1-0.3,0.1-0.6,0.1-0.9h0.7h0c0.9-0.1,1.8-0.4,2.5-1.1l0.9-1
	C22.6,7,22.7,6,22,5.3c-0.2-0.2-0.5-0.4-0.8-0.4l-1.6-0.6c-0.3-0.1-0.6-0.2-0.9-0.2c-0.1,0-0.1,0-0.2,0c0-0.5,0-1-0.1-1.4
	c0-0.2-0.1-0.3-0.1-0.5c-0.1-0.3-0.2-0.6-0.5-0.9c0,0,0-0.1-0.1-0.1l0,0l0,0c-0.1-0.1-0.2-0.3-0.4-0.5c0-0.1-0.1-0.1-0.2-0.2
	c-0.1-0.2-0.3-0.3-0.5-0.4C16.4,0.1,16.1,0,15.8,0L15.8,0z M17.3,7.8L17.3,7.8z"/>
</svg>
